<svg xmlns="http://www.w3.org/2000/svg" xmlns:xlink="http://www.w3.org/1999/xlink" width="400" zoomAndPan="magnify" viewBox="0 0 300 74.999997" height="100" preserveAspectRatio="xMidYMid meet" version="1.0"><defs><g/><clipPath id="a96fab6cb9"><path d="M 140.542969 20.570312 L 157.855469 20.570312 L 157.855469 37.882812 L 140.542969 37.882812 Z M 140.542969 20.570312 " clip-rule="nonzero"/></clipPath><clipPath id="ea91483e9f"><path d="M 120.003906 20.570312 L 137.320312 20.570312 L 137.320312 37.882812 L 120.003906 37.882812 Z M 120.003906 20.570312 " clip-rule="nonzero"/></clipPath></defs><rect x="-30" width="360" fill="#ffffff" y="-7.5" height="89.999996" fill-opacity="1"/><rect x="-30" width="360" fill="#ff914d" y="-7.5" height="89.999996" fill-opacity="1"/><g fill="#ffffff" fill-opacity="1"><g transform="translate(98.300328, 37.399998)"><g><path d="M 10.023438 0.375 C 14.847656 0.375 18.5 -2.550781 19.25 -7 L 14.125 -7 C 13.5 -5.347656 12.023438 -4.300781 10.125 -4.300781 C 7.675781 -4.300781 5.972656 -6.125 5.972656 -8.75 C 5.972656 -11.398438 7.699219 -13.199219 10.175781 -13.199219 C 12 -13.199219 13.523438 -12.171875 14.046875 -10.597656 L 19.148438 -10.597656 C 18.25 -15.023438 14.648438 -17.875 9.972656 -17.875 C 4.574219 -17.875 0.851562 -14.148438 0.851562 -8.75 C 0.851562 -3.351562 4.574219 0.375 10.023438 0.375 Z M 10.023438 0.375 "/></g></g></g><g fill="#ffffff" fill-opacity="1"><g transform="translate(118.351106, 37.399998)"><g/></g></g><g fill="#ffffff" fill-opacity="1"><g transform="translate(124.125188, 37.399998)"><g/></g></g><g fill="#ffffff" fill-opacity="1"><g transform="translate(129.899269, 37.399998)"><g/></g></g><g fill="#ffffff" fill-opacity="1"><g transform="translate(135.67335, 37.399998)"><g/></g></g><g fill="#ffffff" fill-opacity="1"><g transform="translate(141.447432, 37.399998)"><g/></g></g><g fill="#ffffff" fill-opacity="1"><g transform="translate(147.221513, 37.399998)"><g/></g></g><g fill="#ffffff" fill-opacity="1"><g transform="translate(152.995594, 37.399998)"><g/></g></g><g fill="#ffffff" fill-opacity="1"><g transform="translate(158.780788, 37.399998)"><g><path d="M 1.851562 0 L 6.898438 0 L 6.898438 -6.625 L 9.097656 -6.625 L 12.449219 0 L 18.296875 0 L 13.699219 -8.5 C 14.222656 -9.125 14.699219 -9.949219 15.097656 -10.972656 L 17.699219 -17.5 L 12.222656 -17.5 L 10.648438 -13.125 C 10.125 -11.597656 9.550781 -11.222656 7.75 -11.222656 L 6.898438 -11.222656 L 6.898438 -17.5 L 1.851562 -17.5 Z M 1.851562 0 "/></g></g></g><g fill="#ffffff" fill-opacity="1"><g transform="translate(177.677796, 37.399998)"><g><path d="M 1.851562 0 L 6.898438 0 L 6.898438 -17.5 L 1.851562 -17.5 Z M 1.851562 0 "/></g></g></g><g fill="#ffffff" fill-opacity="1"><g transform="translate(186.426414, 37.399998)"><g><path d="M 1.851562 0 L 14.125 0 L 14.125 -4.125 L 6.847656 -4.125 L 6.847656 -6.824219 L 13.171875 -6.824219 L 13.171875 -10.875 L 6.847656 -10.875 L 6.847656 -13.421875 L 13.847656 -13.421875 L 13.847656 -17.5 L 1.851562 -17.5 Z M 1.851562 0 "/></g></g></g><g clip-path="url(#a96fab6cb9)"><path fill="#ffffff" d="M 147.492188 20.601562 C 143.636719 20.640625 140.546875 23.800781 140.585938 27.65625 C 140.628906 31.511719 143.789062 34.601562 147.644531 34.558594 C 149.066406 34.542969 150.453125 34.09375 151.613281 33.265625 L 155.597656 37.253906 C 156.054688 37.703125 156.792969 37.699219 157.242188 37.242188 C 157.6875 36.789062 157.6875 36.0625 157.242188 35.609375 L 153.253906 31.625 C 155.488281 28.484375 154.753906 24.125 151.613281 21.890625 C 150.410156 21.035156 148.964844 20.582031 147.492188 20.601562 Z M 147.40625 21.808594 C 150.589844 21.71875 153.242188 24.226562 153.332031 27.410156 C 153.332031 27.464844 153.335938 27.523438 153.335938 27.578125 C 153.335938 30.761719 150.753906 33.34375 147.570312 33.347656 C 144.386719 33.347656 141.804688 30.769531 141.800781 27.582031 C 141.800781 27.582031 141.800781 27.582031 141.800781 27.578125 C 141.796875 24.453125 144.28125 21.894531 147.40625 21.808594 Z M 147.40625 21.808594 " fill-opacity="1" fill-rule="nonzero"/></g><path fill="#ffffff" d="M 146.011719 23.300781 C 146.328125 23.191406 146.671875 23.351562 146.785156 23.667969 C 146.898438 23.980469 146.738281 24.328125 146.425781 24.445312 C 145.109375 24.921875 144.230469 26.175781 144.230469 27.578125 C 144.230469 27.914062 143.957031 28.1875 143.625 28.1875 C 143.289062 28.1875 143.015625 27.914062 143.015625 27.578125 C 143.015625 25.664062 144.210938 23.957031 146.011719 23.300781 Z M 146.011719 23.300781 " fill-opacity="1" fill-rule="nonzero"/><g clip-path="url(#ea91483e9f)"><path fill="#ffffff" d="M 128.578125 20.570312 C 123.847656 20.570312 120.003906 24.414062 120.003906 29.140625 C 120.003906 33.871094 123.847656 37.714844 128.578125 37.714844 C 133.308594 37.714844 137.152344 33.871094 137.152344 29.140625 C 137.152344 28.890625 137.136719 28.644531 137.113281 28.410156 C 137.101562 28.265625 137.015625 28.140625 136.890625 28.078125 C 136.761719 28.011719 136.609375 28.019531 136.488281 28.097656 C 136.261719 28.242188 136.003906 28.324219 135.722656 28.324219 C 135.117188 28.324219 134.609375 27.949219 134.398438 27.425781 C 134.355469 27.316406 134.265625 27.230469 134.15625 27.191406 C 134.046875 27.152344 133.925781 27.160156 133.824219 27.214844 C 133.480469 27.402344 133.082031 27.507812 132.660156 27.507812 C 131.304688 27.507812 130.210938 26.417969 130.210938 25.058594 C 130.210938 24.636719 130.316406 24.242188 130.503906 23.898438 C 130.558594 23.792969 130.570312 23.671875 130.527344 23.5625 C 130.488281 23.453125 130.402344 23.367188 130.296875 23.324219 C 129.769531 23.113281 129.394531 22.605469 129.394531 21.996094 C 129.394531 21.714844 129.480469 21.457031 129.621094 21.230469 C 129.699219 21.109375 129.707031 20.960938 129.644531 20.832031 C 129.578125 20.703125 129.453125 20.617188 129.3125 20.605469 C 129.074219 20.585938 128.832031 20.570312 128.578125 20.570312 Z M 133.886719 20.570312 C 133.433594 20.570312 133.070312 20.933594 133.070312 21.386719 C 133.070312 21.835938 133.433594 22.203125 133.886719 22.203125 C 134.335938 22.203125 134.703125 21.835938 134.703125 21.386719 C 134.703125 20.933594 134.335938 20.570312 133.886719 20.570312 Z M 128.578125 21.386719 C 128.636719 21.386719 128.699219 21.390625 128.757812 21.394531 C 128.695312 21.597656 128.578125 21.773438 128.578125 21.996094 C 128.578125 22.789062 129.042969 23.421875 129.664062 23.820312 C 129.503906 24.203125 129.394531 24.617188 129.394531 25.058594 C 129.394531 26.859375 130.863281 28.324219 132.660156 28.324219 C 133.101562 28.324219 133.515625 28.214844 133.902344 28.054688 C 134.300781 28.679688 134.929688 29.140625 135.722656 29.140625 C 135.945312 29.140625 136.121094 29.027344 136.328125 28.964844 C 136.328125 29.023438 136.335938 29.082031 136.335938 29.140625 C 136.335938 33.429688 132.867188 36.898438 128.578125 36.898438 C 124.289062 36.898438 120.820312 33.429688 120.820312 29.140625 C 120.820312 24.855469 124.289062 21.386719 128.578125 21.386719 Z M 133.273438 23.835938 C 132.933594 23.835938 132.660156 24.109375 132.660156 24.449219 C 132.660156 24.785156 132.933594 25.058594 133.273438 25.058594 C 133.609375 25.058594 133.886719 24.785156 133.886719 24.449219 C 133.886719 24.109375 133.609375 23.835938 133.273438 23.835938 Z M 127.148438 25.058594 C 126.8125 25.058594 126.535156 25.335938 126.535156 25.671875 C 126.535156 26.011719 126.8125 26.285156 127.148438 26.285156 C 127.488281 26.285156 127.761719 26.011719 127.761719 25.671875 C 127.761719 25.335938 127.488281 25.058594 127.148438 25.058594 Z M 136.742188 25.058594 C 136.519531 25.058594 136.335938 25.242188 136.335938 25.46875 C 136.335938 25.691406 136.519531 25.875 136.742188 25.875 C 136.96875 25.875 137.152344 25.691406 137.152344 25.46875 C 137.152344 25.242188 136.96875 25.058594 136.742188 25.058594 Z M 124.496094 27.101562 C 123.820312 27.101562 123.269531 27.648438 123.269531 28.324219 C 123.269531 29.003906 123.820312 29.550781 124.496094 29.550781 C 125.171875 29.550781 125.71875 29.003906 125.71875 28.324219 C 125.71875 27.648438 125.171875 27.101562 124.496094 27.101562 Z M 128.375 28.734375 C 128.035156 28.734375 127.761719 29.007812 127.761719 29.347656 C 127.761719 29.683594 128.035156 29.957031 128.375 29.957031 C 128.710938 29.957031 128.988281 29.683594 128.988281 29.347656 C 128.988281 29.007812 128.710938 28.734375 128.375 28.734375 Z M 125.3125 31.59375 C 124.859375 31.59375 124.496094 31.957031 124.496094 32.410156 C 124.496094 32.859375 124.859375 33.226562 125.3125 33.226562 C 125.761719 33.226562 126.128906 32.859375 126.128906 32.410156 C 126.128906 31.957031 125.761719 31.59375 125.3125 31.59375 Z M 130.824219 32 C 130.261719 32 129.804688 32.457031 129.804688 33.019531 C 129.804688 33.582031 130.261719 34.042969 130.824219 34.042969 C 131.386719 34.042969 131.84375 33.582031 131.84375 33.019531 C 131.84375 32.457031 131.386719 32 130.824219 32 Z M 130.824219 32 " fill-opacity="1" fill-rule="nonzero"/></g><g fill="#ffffff" fill-opacity="1"><g transform="translate(108.659702, 55.999995)"><g><path d="M 1.425781 0 L 2.660156 0 L 2.660156 -9.796875 L 1.425781 -9.796875 Z M 1.425781 0 "/></g></g></g><g fill="#ffffff" fill-opacity="1"><g transform="translate(112.745425, 55.999995)"><g><path d="M 1.425781 0 L 2.644531 0 L 2.644531 -7.667969 L 8.0625 0 L 9.207031 0 L 9.207031 -9.796875 L 8.003906 -9.796875 L 8.003906 -2.128906 L 2.589844 -9.796875 L 1.425781 -9.796875 Z M 1.425781 0 "/></g></g></g><g fill="#ffffff" fill-opacity="1"><g transform="translate(123.379491, 55.999995)"><g><path d="M 4.6875 0.183594 C 6.828125 0.183594 8.214844 -0.867188 8.214844 -2.574219 C 8.214844 -4.015625 7.25 -4.882812 4.746094 -5.5 C 2.839844 -5.960938 2.210938 -6.464844 2.210938 -7.277344 C 2.210938 -8.214844 3.050781 -8.804688 4.449219 -8.804688 C 5.890625 -8.804688 6.789062 -8.074219 6.816406 -6.898438 L 8.03125 -6.898438 C 8.019531 -8.804688 6.648438 -9.976562 4.449219 -9.976562 C 2.308594 -9.976562 0.953125 -8.929688 0.953125 -7.277344 C 0.953125 -5.765625 2.027344 -4.925781 4.4375 -4.351562 C 6.199219 -3.933594 6.941406 -3.441406 6.941406 -2.53125 C 6.941406 -1.566406 6.074219 -0.992188 4.6875 -0.992188 C 3.164062 -0.992188 2.097656 -1.75 2.070312 -3.007812 L 0.839844 -3.007812 C 0.855469 -1.089844 2.351562 0.183594 4.6875 0.183594 Z M 4.6875 0.183594 "/></g></g></g><g fill="#ffffff" fill-opacity="1"><g transform="translate(132.432441, 55.999995)"><g><path d="M 1.425781 0 L 2.660156 0 L 2.660156 -3.21875 L 4.746094 -3.21875 C 6.957031 -3.21875 8.382812 -4.492188 8.382812 -6.507812 C 8.382812 -8.507812 6.957031 -9.796875 4.746094 -9.796875 L 1.425781 -9.796875 Z M 2.660156 -4.367188 L 2.660156 -8.621094 L 4.714844 -8.621094 C 6.296875 -8.621094 7.125 -7.894531 7.125 -6.492188 C 7.125 -5.09375 6.296875 -4.367188 4.714844 -4.367188 Z M 2.660156 -4.367188 "/></g></g></g><g fill="#ffffff" fill-opacity="1"><g transform="translate(141.373446, 55.999995)"><g><path d="M 1.425781 0 L 7.53125 0 L 7.53125 -1.148438 L 2.660156 -1.148438 L 2.660156 -4.421875 L 7.027344 -4.421875 L 7.027344 -5.554688 L 2.660156 -5.554688 L 2.660156 -8.648438 L 7.375 -8.648438 L 7.375 -9.796875 L 1.425781 -9.796875 Z M 1.425781 0 "/></g></g></g><g fill="#ffffff" fill-opacity="1"><g transform="translate(149.810738, 55.999995)"><g><path d="M 5.765625 0.183594 C 8.144531 0.183594 10.078125 -1.257812 10.664062 -3.441406 L 9.363281 -3.441406 C 8.859375 -1.972656 7.472656 -1.050781 5.808594 -1.050781 C 3.625 -1.050781 2.070312 -2.632812 2.070312 -4.898438 C 2.070312 -7.164062 3.625 -8.746094 5.808594 -8.746094 C 7.429688 -8.746094 8.761719 -7.878906 9.265625 -6.464844 L 10.582031 -6.464844 C 9.9375 -8.621094 8.074219 -9.976562 5.765625 -9.976562 C 2.882812 -9.976562 0.8125 -7.851562 0.8125 -4.898438 C 0.8125 -1.945312 2.882812 0.183594 5.765625 0.183594 Z M 5.765625 0.183594 "/></g></g></g><g fill="#ffffff" fill-opacity="1"><g transform="translate(161.22837, 55.999995)"><g><path d="M 3.792969 0 L 5.023438 0 L 5.023438 -8.621094 L 8.328125 -8.621094 L 8.328125 -9.796875 L 0.476562 -9.796875 L 0.476562 -8.621094 L 3.792969 -8.621094 Z M 3.792969 0 "/></g></g></g><g fill="#ffffff" fill-opacity="1"><g transform="translate(170.043443, 55.999995)"><g><path d="M 5.878906 0.183594 C 8.859375 0.183594 10.957031 -1.917969 10.957031 -4.898438 C 10.957031 -7.878906 8.859375 -9.976562 5.878906 -9.976562 C 2.898438 -9.976562 0.8125 -7.878906 0.8125 -4.898438 C 0.8125 -1.917969 2.898438 0.183594 5.878906 0.183594 Z M 2.070312 -4.898438 C 2.070312 -7.179688 3.625 -8.746094 5.878906 -8.746094 C 8.132812 -8.746094 9.683594 -7.179688 9.683594 -4.898438 C 9.683594 -2.617188 8.132812 -1.050781 5.878906 -1.050781 C 3.625 -1.050781 2.070312 -2.617188 2.070312 -4.898438 Z M 2.070312 -4.898438 "/></g></g></g><g fill="#ffffff" fill-opacity="1"><g transform="translate(181.796879, 55.999995)"><g><path d="M 1.425781 0 L 2.660156 0 L 2.660156 -3.511719 L 4.8125 -3.511719 L 7.207031 0 L 8.691406 0 L 6.226562 -3.640625 C 7.65625 -3.988281 8.535156 -5.066406 8.535156 -6.648438 C 8.535156 -8.59375 7.195312 -9.796875 5.164062 -9.796875 L 1.425781 -9.796875 Z M 2.660156 -4.6875 L 2.660156 -8.621094 L 5.023438 -8.621094 C 6.453125 -8.621094 7.277344 -7.894531 7.277344 -6.648438 C 7.277344 -5.402344 6.453125 -4.6875 5.023438 -4.6875 Z M 2.660156 -4.6875 "/></g></g></g></svg>